# xmcd
#
# Track frame offsets:
#	150
#	19358
#	32857
#	51409
#	66418
#	82685
#	95277
#	113437
#	128545
#	141642
#	157794
#	169946
#	184192
#	196801
#
# Disc length: 2846 seconds
#
# Revision: 2
# Processed by: cddbd v1.5.2PL0 Copyright (c) Steve Scherf et al.
# Submitted via: EZCDAudioConverter 7.1.0.1
#
DISCID=b70b1c0e
DTITLE=ATAIDE and ALEXANDRE - LAÇO ABERTO [CD857380828-2) CHANTECLER
DYEAR=2000
DGENRE=SERTANEJO
TTITLE0=LAÇO ABERTO (BY GILMAR SINISTRO)
TTITLE1=MEU COLÍRIO (BY GILMAR SINISTRO)
TTITLE2=CAFÉ NO BULE (BY GILMAR SINISTRO)
TTITLE3=POR ONDE ANDARÁ VOCÊ (BY GILMAR SINISTRO) 
TTITLE4=ONDE TEM AMOR (BY GILMAR SINISTRO)
TTITLE5=PISEIRO (BY GILMAR SINISTRO) 
TTITLE6=CONTA COMIGO (BY GILMAR SINISTRO)
TTITLE7=BARRETEZÃO (BY GILMAR SINISTRO)
TTITLE8=MANDINGA (BY GILMAR SINISTRO)
TTITLE9=EM ALGUM LUGAR DO PASSADO (BY GILMAR SINISTRO)
TTITLE10=SUCUMBIU (BY GILMAR SINISTRO)
TTITLE11=VALEU (BY GILMAR SINISTRO)
TTITLE12=COMER COMER (BY GILMAR SINISTRO)
TTITLE13=CHUVA QUE CAI (BY GILMAR SINISTRO) 
EXTD=
EXTT0=
EXTT1=
EXTT2=
EXTT3=
EXTT4=
EXTT5=
EXTT6=
EXTT7=
EXTT8=
EXTT9=
EXTT10=
EXTT11=
EXTT12=
EXTT13=
PLAYORDER=
